<?xml version="1.0" encoding="UTF-8" standalone="no"?>
<svg
   xmlns:dc="http://purl.org/dc/elements/1.1/"
   xmlns:cc="http://creativecommons.org/ns#"
   xmlns:rdf="http://www.w3.org/1999/02/22-rdf-syntax-ns#"
   xmlns:svg="http://www.w3.org/2000/svg"
   xmlns="http://www.w3.org/2000/svg"
   xmlns:xlink="http://www.w3.org/1999/xlink"
   xmlns:sodipodi="http://sodipodi.sourceforge.net/DTD/sodipodi-0.dtd"
   xmlns:inkscape="http://www.inkscape.org/namespaces/inkscape"
   width="256mm"
   height="256mm"
   viewBox="0 0 256 256"
   version="1.1"
   id="svg1059"
   inkscape:version="1.0.1 (c497b03c, 2020-09-10)"
   sodipodi:docname="Collectable_Hit.svg">
  <defs
     id="defs1053">
    <linearGradient
       inkscape:collect="always"
       xlink:href="#linearGradient1613"
       id="linearGradient1331-7"
       gradientUnits="userSpaceOnUse"
       x1="115.40535"
       y1="167.64705"
       x2="113.15607"
       y2="132.2235"
       gradientTransform="matrix(1.7310314,-1.4625534,1.4625534,1.7310314,-228.03606,39.062245)" />
    <linearGradient
       inkscape:collect="always"
       id="linearGradient1613">
      <stop
         style="stop-color:#ffd0b4;stop-opacity:1"
         offset="0"
         id="stop1609" />
      <stop
         style="stop-color:#fff5e5;stop-opacity:1"
         offset="1"
         id="stop1611" />
    </linearGradient>
    <linearGradient
       inkscape:collect="always"
       xlink:href="#linearGradient1613"
       id="linearGradient1331-7-4"
       gradientUnits="userSpaceOnUse"
       x1="115.40535"
       y1="167.64705"
       x2="113.15607"
       y2="132.2235"
       gradientTransform="matrix(1.9634735,-1.440358,1.440358,1.9634735,-342.16268,49.547112)" />
  </defs>
  <sodipodi:namedview
     id="base"
     pagecolor="#ffffff"
     bordercolor="#666666"
     borderopacity="1.0"
     inkscape:pageopacity="0.0"
     inkscape:pageshadow="2"
     inkscape:zoom="0.33475894"
     inkscape:cx="400"
     inkscape:cy="560"
     inkscape:document-units="mm"
     inkscape:current-layer="layer1"
     inkscape:document-rotation="0"
     showgrid="false"
     inkscape:window-width="1440"
     inkscape:window-height="785"
     inkscape:window-x="4"
     inkscape:window-y="25"
     inkscape:window-maximized="0" />
  <metadata
     id="metadata1056">
    <rdf:RDF>
      <cc:Work
         rdf:about="">
        <dc:format>image/svg+xml</dc:format>
        <dc:type
           rdf:resource="http://purl.org/dc/dcmitype/StillImage" />
        <dc:title></dc:title>
      </cc:Work>
    </rdf:RDF>
  </metadata>
  <g
     inkscape:label="Layer 1"
     inkscape:groupmode="layer"
     id="layer1">
    <g
       id="g2979"
       transform="translate(1.9760183,6.489562)">
      <path
         id="path3004-3-5"
         style="opacity:1;fill:url(#linearGradient1331-7);fill-opacity:1;stroke:#000000;stroke-width:4.53236;stroke-linecap:butt;stroke-linejoin:round;stroke-miterlimit:4;stroke-dasharray:none;stroke-opacity:1;paint-order:normal"
         d="m 124.98772,50.491503 0.1418,1.318256 -1.18848,-0.334272 7.99309,41.193054 a 93.824921,60.886383 49.805437 0 0 12.58442,29.448939 71.865899,30.942259 49.805437 0 0 2.65273,3.22118 71.865899,30.942259 49.805437 0 0 69.75566,35.13942 l 0.0506,0.06 A 71.942595,30.940604 49.805437 0 0 193.98318,85.787147 71.942595,30.940604 49.805437 0 0 191.24692,82.630418 93.925044,60.883123 49.805437 0 0 164.29209,65.280101 Z" />
      <path
         id="path3004-3-5-3"
         style="opacity:1;fill:url(#linearGradient1331-7-4);fill-opacity:1;stroke:#000000;stroke-width:4.87029;stroke-linecap:butt;stroke-linejoin:round;stroke-miterlimit:4;stroke-dasharray:none;stroke-opacity:1;paint-order:normal"
         d="m 35.446633,87.809982 0.05489,1.423658 -1.249443,-0.445923 5.533766,44.749023 a 100.82022,65.425888 53.737106 0 0 11.32109,32.49731 77.224003,33.24922 53.737106 0 0 2.606448,3.64865 77.224003,33.24922 53.737106 0 0 72.191006,42.80996 l 0.0499,0.0679 a 77.306416,33.247442 53.737106 0 0 -19.14301,-81.82925 77.306416,33.247442 53.737106 0 0 -2.70077,-3.5857 100.92781,65.422383 53.737106 0 0 -27.617969,-20.58603 z" />
    </g>
  </g>
</svg>
