<?xml version="1.0" encoding="UTF-8" standalone="no"?>
<svg
   xmlns:dc="http://purl.org/dc/elements/1.1/"
   xmlns:cc="http://creativecommons.org/ns#"
   xmlns:rdf="http://www.w3.org/1999/02/22-rdf-syntax-ns#"
   xmlns:svg="http://www.w3.org/2000/svg"
   xmlns="http://www.w3.org/2000/svg"
   xmlns:sodipodi="http://sodipodi.sourceforge.net/DTD/sodipodi-0.dtd"
   xmlns:inkscape="http://www.inkscape.org/namespaces/inkscape"
   width="256mm"
   height="256mm"
   viewBox="0 0 256 256"
   version="1.1"
   id="svg1289"
   inkscape:version="1.0.1 (c497b03c, 2020-09-10)"
   sodipodi:docname="Finger.svg">
  <defs
     id="defs1283">
    <inkscape:path-effect
       effect="bspline"
       id="path-effect1885"
       is_visible="true"
       lpeversion="1"
       weight="33.333333"
       steps="2"
       helper_size="0"
       apply_no_weight="true"
       apply_with_weight="true"
       only_selected="false" />
    <inkscape:path-effect
       effect="bspline"
       id="path-effect1881"
       is_visible="true"
       lpeversion="1"
       weight="33.333333"
       steps="2"
       helper_size="0"
       apply_no_weight="true"
       apply_with_weight="true"
       only_selected="false" />
  </defs>
  <sodipodi:namedview
     id="base"
     pagecolor="#ffffff"
     bordercolor="#666666"
     borderopacity="1.0"
     inkscape:pageopacity="0.0"
     inkscape:pageshadow="2"
     inkscape:zoom="0.60335896"
     inkscape:cx="280.55206"
     inkscape:cy="282.42414"
     inkscape:document-units="mm"
     inkscape:current-layer="layer1"
     inkscape:document-rotation="0"
     showgrid="false"
     inkscape:window-width="1252"
     inkscape:window-height="785"
     inkscape:window-x="0"
     inkscape:window-y="25"
     inkscape:window-maximized="0" />
  <metadata
     id="metadata1286">
    <rdf:RDF>
      <cc:Work
         rdf:about="">
        <dc:format>image/svg+xml</dc:format>
        <dc:type
           rdf:resource="http://purl.org/dc/dcmitype/StillImage" />
        <dc:title></dc:title>
      </cc:Work>
    </rdf:RDF>
  </metadata>
  <g
     inkscape:label="Layer 1"
     inkscape:groupmode="layer"
     id="layer1">
    <path
       id="rect2616"
       style="fill:#ffe0ce;fill-opacity:1;stroke:#000000;stroke-width:4.18;stroke-linejoin:round;stroke-miterlimit:4;stroke-dasharray:none;stroke-opacity:1"
       d="m 29.385864,2.0901435 c -6.516918,0 -11.762612,6.2837187 -11.762612,14.0900155 v 56.363148 c 0,1.235938 0.132869,2.433873 0.380117,3.574616 -0.617707,0.20779 -1.22496,0.460459 -1.816561,0.761567 L 8.7185146,80.680098 C 2.2097718,83.992879 0.1071868,91.745475 4.0040634,98.061981 L 20.147023,124.22871 c 0.497711,0.80675 1.069878,1.5491 1.70053,2.22485 5.457912,9.2871 15.247206,15.4563 26.466132,15.4563 h 26.456128 c 15.936172,0 28.986777,-12.44615 30.830477,-28.60003 0.19615,-0.89658 0.3121,-1.83062 0.3121,-2.79861 V 64.741894 c 0,-6.339134 -4.46481,-11.443101 -10.010091,-11.443101 -5.545267,0 -10.009067,5.103967 -10.009067,11.443101 v 6.254547 c -0.166859,-0.06667 -0.33191,-0.137485 -0.500159,-0.201226 v -13.65557 c 0,-6.345989 -4.60902,-11.454456 -10.33517,-11.454456 -5.726155,0 -10.336178,5.108467 -10.336178,11.454456 V 68.855181 H 64.22157 V 51.481555 c 0,-6.339134 -4.774167,-11.442076 -10.705291,-11.442076 -5.931115,0 -10.706289,5.102942 -10.706289,11.442076 v 17.888559 c -0.558951,0.103884 -1.112504,0.222475 -1.660508,0.357052 V 16.180159 c 0,-7.8062968 -5.246693,-14.0900155 -11.763618,-14.0900155 z" />
  </g>
</svg>
