<?xml version="1.0" encoding="UTF-8" standalone="no"?>
<svg
   xmlns:dc="http://purl.org/dc/elements/1.1/"
   xmlns:cc="http://creativecommons.org/ns#"
   xmlns:rdf="http://www.w3.org/1999/02/22-rdf-syntax-ns#"
   xmlns:svg="http://www.w3.org/2000/svg"
   xmlns="http://www.w3.org/2000/svg"
   xmlns:sodipodi="http://sodipodi.sourceforge.net/DTD/sodipodi-0.dtd"
   xmlns:inkscape="http://www.inkscape.org/namespaces/inkscape"
   width="192mm"
   height="48mm"
   viewBox="0 0 192 48"
   version="1.1"
   id="svg9643"
   inkscape:version="1.0.1 (c497b03c, 2020-09-10)"
   sodipodi:docname="GhostKing_Ring.svg">
  <defs
     id="defs9637" />
  <sodipodi:namedview
     id="base"
     pagecolor="#ffffff"
     bordercolor="#666666"
     borderopacity="1.0"
     inkscape:pageopacity="0.0"
     inkscape:pageshadow="2"
     inkscape:zoom="1"
     inkscape:cx="300.60395"
     inkscape:cy="102.98722"
     inkscape:document-units="mm"
     inkscape:current-layer="layer1"
     inkscape:document-rotation="0"
     showgrid="false"
     inkscape:window-width="1252"
     inkscape:window-height="785"
     inkscape:window-x="59"
     inkscape:window-y="25"
     inkscape:window-maximized="0" />
  <metadata
     id="metadata9640">
    <rdf:RDF>
      <cc:Work
         rdf:about="">
        <dc:format>image/svg+xml</dc:format>
        <dc:type
           rdf:resource="http://purl.org/dc/dcmitype/StillImage" />
        <dc:title></dc:title>
      </cc:Work>
    </rdf:RDF>
  </metadata>
  <g
     inkscape:label="Layer 1"
     inkscape:groupmode="layer"
     id="layer1">
    <g
       id="g9573"
       transform="matrix(1.9958459,0,0,1.2368231,-303.16958,-187.87364)"
       style="fill:#ffed00;fill-opacity:1;stroke-width:0;stroke-miterlimit:4;stroke-dasharray:none">
      <path
         id="path9527"
         style="fill:#ffed00;fill-opacity:1;stroke:#000000;stroke-width:0;stroke-linejoin:round;stroke-miterlimit:4;stroke-dasharray:none"
         d="m 754.69922,574.11133 a 181.79482,73.340194 0 0 0 -180.58789,73.33984 181.79482,73.340194 0 0 0 181.79492,73.33985 181.79482,73.340194 0 0 0 181.79492,-73.33985 181.79482,73.340194 0 0 0 -181.79492,-73.33984 181.79482,73.340194 0 0 0 -1.20703,0 z m 0.25976,16.95898 a 139.75633,56.380894 0 0 1 0.94727,0 139.75633,56.380894 0 0 1 139.75586,56.38086 139.75633,56.380894 0 0 1 -139.75586,56.38086 139.75633,56.380894 0 0 1 -139.75781,-56.38086 139.75633,56.380894 0 0 1 138.81054,-56.38086 z"
         transform="scale(0.26458333)" />
    </g>
  </g>
</svg>
